<?xml version="1.0" encoding="UTF-8" standalone="no"?>
<!-- Created with Inkscape (http://www.inkscape.org/) -->

<svg
   width="2047.9998"
   height="511.99997"
   viewBox="0 0 541.86658 135.46666"
   version="1.1"
   id="svg1"
   xml:space="preserve"
   xmlns:xlink="http://www.w3.org/1999/xlink"
   xmlns="http://www.w3.org/2000/svg"
   xmlns:svg="http://www.w3.org/2000/svg"><defs
     id="defs1"><linearGradient
       id="linearGradient6"><stop
         style="stop-color:#48616d;stop-opacity:1;"
         offset="0"
         id="stop6" /><stop
         style="stop-color:#263740;stop-opacity:1;"
         offset="1"
         id="stop7" /></linearGradient><linearGradient
       id="linearGradient3"><stop
         style="stop-color:#48616d;stop-opacity:1;"
         offset="0"
         id="stop3" /><stop
         style="stop-color:#263740;stop-opacity:1;"
         offset="1"
         id="stop4" /></linearGradient><filter
       style="color-interpolation-filters:sRGB"
       id="filter3-3"
       x="-0.1598361"
       y="-0.48333319"
       width="1.3196722"
       height="1.9666664"><feGaussianBlur
         stdDeviation="1.918229"
         id="feGaussianBlur3-6" /></filter><filter
       style="color-interpolation-filters:sRGB"
       id="filter2-0"
       x="-0.24166639"
       y="-0.36250005"
       width="1.4833328"
       height="1.7250001"><feGaussianBlur
         stdDeviation="1.918229"
         id="feGaussianBlur2-6" /></filter><filter
       style="color-interpolation-filters:sRGB"
       id="filter1-2"
       x="-0.24166664"
       y="-0.36249982"
       width="1.4833333"
       height="1.7249996"><feGaussianBlur
         stdDeviation="1.918229"
         id="feGaussianBlur1-6" /></filter><linearGradient
       xlink:href="#linearGradient3"
       id="linearGradient5"
       gradientUnits="userSpaceOnUse"
       x1="67.733337"
       y1="0"
       x2="67.733315"
       y2="63.500004"
       gradientTransform="translate(135.46667)" /><filter
       style="color-interpolation-filters:sRGB"
       id="filter8"
       x="-0.066866028"
       y="-0.28064367"
       width="1.1337321"
       height="1.5612873"><feGaussianBlur
         stdDeviation="3.0929856"
         id="feGaussianBlur8" /></filter><linearGradient
       xlink:href="#linearGradient6"
       id="linearGradient7"
       x1="67.733315"
       y1="63.500004"
       x2="67.733315"
       y2="82.549988"
       gradientUnits="userSpaceOnUse"
       gradientTransform="translate(135.46667)" /><linearGradient
       xlink:href="#linearGradient6"
       id="linearGradient5-7"
       gradientUnits="userSpaceOnUse"
       x1="67.733337"
       y1="0"
       x2="67.733315"
       y2="63.500004" /><linearGradient
       xlink:href="#linearGradient6"
       id="linearGradient7-5"
       x1="67.733315"
       y1="63.500004"
       x2="67.733315"
       y2="82.549988"
       gradientUnits="userSpaceOnUse" /><filter
       style="color-interpolation-filters:sRGB"
       id="filter3-3-9"
       x="-0.15983606"
       y="-0.48333319"
       width="1.3196721"
       height="1.9666664"><feGaussianBlur
         stdDeviation="1.918229"
         id="feGaussianBlur3-6-1" /></filter><filter
       style="color-interpolation-filters:sRGB"
       id="filter2-0-2"
       x="-0.24166645"
       y="-0.36250005"
       width="1.4833329"
       height="1.7250001"><feGaussianBlur
         stdDeviation="1.918229"
         id="feGaussianBlur2-6-7" /></filter><filter
       style="color-interpolation-filters:sRGB"
       id="filter1-2-0"
       x="-0.24166675"
       y="-0.36249982"
       width="1.4833335"
       height="1.7249996"><feGaussianBlur
         stdDeviation="1.918229"
         id="feGaussianBlur1-6-9" /></filter></defs><g
     id="layer1"
     transform="translate(-135.46665)"><path
       id="rect4-8"
       style="fill:#0d0d0d;fill-opacity:0;stroke-width:0.529166"
       d="M 135.46666,0 H 677.33328 V 135.46666 H 135.46666 Z" /><g
       id="g2"><path
         style="display:inline;fill:url(#linearGradient5);stroke:none;stroke-width:0.264583;stroke-linecap:butt;stroke-linejoin:round;stroke-miterlimit:53.8;stroke-dasharray:none;stroke-opacity:1;paint-order:normal"
         d="m 203.19999,118.53332 29.63334,1e-5 L 262.46668,101.6 270.93333,84.666663 262.46667,76.199999 254,42.333331 270.93334,0 l -33.86666,12.700002 -67.73336,2e-6 L 135.46667,0 152.4,42.333334 l -8.46666,33.866663 -8.46667,8.466671 8.46667,16.933342 29.63332,16.93332 z"
         id="path163-3-9" /><path
         style="display:inline;fill:#0d0d0d;fill-opacity:1;stroke:none;stroke-width:0.264583;stroke-linecap:butt;stroke-linejoin:round;stroke-miterlimit:53.8;stroke-dasharray:none;stroke-opacity:1;paint-order:normal"
         d="m 148.16667,59.266666 21.16667,-21.166672 16.93332,25.400008 z"
         id="path168-0-2" /><path
         style="display:inline;fill:#0d0d0d;fill-opacity:1;stroke:none;stroke-width:0.264583;stroke-linecap:butt;stroke-linejoin:round;stroke-miterlimit:53.8;stroke-dasharray:none;stroke-opacity:1;paint-order:normal"
         d="M 258.23334,59.266666 237.06666,38.099997 220.13332,63.499994 Z"
         id="path169-3-0" /><path
         style="display:inline;fill:#1b2a31;fill-opacity:1;stroke:none;stroke-width:0.264583;stroke-linecap:butt;stroke-linejoin:round;stroke-miterlimit:53.8;stroke-dasharray:none;stroke-opacity:1;paint-order:normal"
         d="M 186.26666,63.500002 177.8,82.549988 h 16.93332 l 8.46666,-19.049997 z"
         id="path170-0-2" /><path
         style="display:inline;fill:#1b2a31;fill-opacity:1;stroke:none;stroke-width:0.264583;stroke-linecap:butt;stroke-linejoin:round;stroke-miterlimit:53.8;stroke-dasharray:none;stroke-opacity:1;paint-order:normal"
         d="m 228.6,82.549991 h -16.93335 l -8.46667,-19.05 16.93334,3e-6 z"
         id="path171-9-3" /><path
         style="display:inline;fill:#1b2a31;fill-opacity:1;stroke:none;stroke-width:0.264583;stroke-linecap:butt;stroke-linejoin:round;stroke-miterlimit:53.8;stroke-dasharray:none;stroke-opacity:1;paint-order:normal"
         d="m 169.33334,38.099994 67.73333,8e-6 -33.86669,25.399992 z"
         id="path177-2-7" /><path
         style="display:inline;fill:#0d0d0d;fill-opacity:1;stroke:none;stroke-width:0.264583;stroke-linecap:butt;stroke-linejoin:round;stroke-miterlimit:53.8;stroke-dasharray:none;stroke-opacity:1;paint-order:normal"
         d="m 203.19999,92.074988 8.46666,-9.524997 -16.93333,-3e-6 z"
         id="path178-5-5" /><path
         style="display:inline;fill:#1a1a1a;fill-opacity:1;stroke:none;stroke-width:0.264583;stroke-linecap:butt;stroke-linejoin:round;stroke-miterlimit:53.8;stroke-dasharray:none;stroke-opacity:1;paint-order:normal"
         d="m 177.8,82.549988 10.99853,19.050002 14.40146,-9.525002 -8.46667,-9.525 z"
         id="path179-4-9" /><path
         style="display:inline;fill:#1a1a1a;fill-opacity:1;stroke:none;stroke-width:0.264583;stroke-linecap:butt;stroke-linejoin:round;stroke-miterlimit:53.8;stroke-dasharray:none;stroke-opacity:1;paint-order:normal"
         d="m 228.6,82.549991 -10.99853,19.049999 -14.40148,-9.525002 8.46666,-9.524997 z"
         id="path180-0-2" /><path
         style="display:inline;fill:#e55e1a;fill-opacity:1;stroke:none;stroke-width:0.264583;stroke-linecap:butt;stroke-linejoin:round;stroke-miterlimit:53.8;stroke-dasharray:none;stroke-opacity:1;paint-order:normal"
         d="m 217.60147,101.59999 h -28.80294 l 14.40146,-9.525002 z"
         id="path181-5-2" /><path
         style="display:inline;fill:url(#linearGradient7);stroke:none;stroke-width:0.264583;stroke-linecap:butt;stroke-linejoin:round;stroke-miterlimit:53.8;stroke-dasharray:none;stroke-opacity:1;paint-order:normal"
         d="m 203.19998,63.499994 8.46667,19.049997 -16.93333,-3e-6 z"
         id="path182-9-8" /><path
         style="display:inline;fill:#1a1a1a;fill-opacity:1;stroke:none;stroke-width:0.264583;stroke-linecap:butt;stroke-linejoin:round;stroke-miterlimit:53.8;stroke-dasharray:none;stroke-opacity:1;paint-order:normal"
         d="m 135.46667,84.666668 26.07732,19.557992 41.656,14.30866 -29.63333,1e-5 -29.63332,-16.93332 z"
         id="path183-4-9" /><path
         style="display:inline;fill:#1a1a1a;fill-opacity:1;stroke:none;stroke-width:0.264583;stroke-linecap:butt;stroke-linejoin:round;stroke-miterlimit:53.8;stroke-dasharray:none;stroke-opacity:1;paint-order:normal"
         d="m 270.93333,84.666663 -26.07734,19.557997 -41.656,14.30866 29.63334,1e-5 L 262.46668,101.6 Z"
         id="path184-6-7" /><path
         style="fill:#e55e1a;fill-opacity:1;stroke:none;stroke-width:0.264583;stroke-linecap:butt;stroke-linejoin:round;stroke-miterlimit:53.8;stroke-dasharray:none;stroke-opacity:1;paint-order:normal"
         d="m 228.59999,50.799997 10.58334,10.583333 -19.05001,2.116664 z"
         id="path196-9-36" /><path
         style="display:inline;fill:#e55e1a;fill-opacity:1;stroke:none;stroke-width:0.264583;stroke-linecap:butt;stroke-linejoin:round;stroke-miterlimit:53.8;stroke-dasharray:none;stroke-opacity:1;paint-order:normal"
         d="M 167.21666,61.383335 177.8,50.799997 l 8.46666,12.700005 z"
         id="path197-2-1" /><path
         style="fill:#1b2a31;fill-opacity:1;stroke:none;stroke-width:0.264583;stroke-linecap:butt;stroke-linejoin:round;stroke-miterlimit:53.8;stroke-dasharray:none;stroke-opacity:1;paint-order:normal"
         d="M 143.93334,76.199996 161.54399,104.22466 135.46667,84.666668 Z"
         id="path198-2-2" /><path
         style="fill:#1b2a31;fill-opacity:1;stroke:none;stroke-width:0.264583;stroke-linecap:butt;stroke-linejoin:round;stroke-miterlimit:53.8;stroke-dasharray:none;stroke-opacity:1;paint-order:normal"
         d="M 270.93333,84.666663 244.85599,104.22466 262.46667,76.199999 Z"
         id="path199-4-9" /><path
         style="fill:#1a1a1a;fill-opacity:1;stroke:none;stroke-width:0.264583;stroke-linecap:butt;stroke-linejoin:round;stroke-miterlimit:53.8;stroke-dasharray:none;stroke-opacity:1;paint-order:normal"
         d="m 217.60147,101.59999 -14.40148,16.93333 -14.40146,-16.93333 z"
         id="path185-7-3" /><path
         style="fill:#1b2a31;fill-opacity:1;stroke:none;stroke-width:0.264583;stroke-linecap:butt;stroke-linejoin:round;stroke-miterlimit:53.8;stroke-dasharray:none;stroke-opacity:1;paint-order:normal"
         d="m 228.6,82.549991 16.25599,21.674669 -41.656,14.30866 14.40148,-16.93333 z"
         id="path186-7-1" /><path
         style="fill:#1b2a31;fill-opacity:1;stroke:none;stroke-width:0.264583;stroke-linecap:butt;stroke-linejoin:round;stroke-miterlimit:53.8;stroke-dasharray:none;stroke-opacity:1;paint-order:normal"
         d="M 188.79853,101.59999 177.8,82.549988 l -16.25601,21.674672 41.656,14.30866 z"
         id="path187-5-9" /><path
         style="fill:#1a1a1a;fill-opacity:1;stroke:none;stroke-width:0.264583;stroke-linecap:butt;stroke-linejoin:round;stroke-miterlimit:53.8;stroke-dasharray:none;stroke-opacity:1;paint-order:normal"
         d="M 148.16667,59.266666 177.8,82.549988 186.26666,63.500002 Z"
         id="path188-4-4" /><path
         style="fill:#1a1a1a;fill-opacity:1;stroke:none;stroke-width:0.264583;stroke-linecap:butt;stroke-linejoin:round;stroke-miterlimit:53.8;stroke-dasharray:none;stroke-opacity:1;paint-order:normal"
         d="M 220.13332,63.499994 228.6,82.549991 258.23334,59.266666 Z"
         id="path189-8-7" /><path
         style="fill:#1a1a1a;fill-opacity:1;stroke:none;stroke-width:0.264583;stroke-linecap:butt;stroke-linejoin:round;stroke-miterlimit:53.8;stroke-dasharray:none;stroke-opacity:1;paint-order:normal"
         d="M 160.86666,27.516669 135.46667,0 152.4,42.333333 Z"
         id="path191-1-8" /><path
         style="fill:#1a1a1a;fill-opacity:1;stroke:none;stroke-width:0.264583;stroke-linecap:butt;stroke-linejoin:round;stroke-miterlimit:53.8;stroke-dasharray:none;stroke-opacity:1;paint-order:normal"
         d="m 270.93334,0 -25.4,27.516666 L 254,42.33333 Z"
         id="path193-2-4" /><path
         style="fill:#1a1a1a;fill-opacity:1;stroke:none;stroke-width:0.264583;stroke-linecap:butt;stroke-linejoin:round;stroke-miterlimit:53.8;stroke-dasharray:none;stroke-opacity:1;paint-order:normal"
         d="m 169.33334,38.099994 33.86664,25.399997 -16.93332,1.1e-5 z"
         id="path194-8-5" /><path
         style="fill:#1a1a1a;fill-opacity:1;stroke:none;stroke-width:0.264583;stroke-linecap:butt;stroke-linejoin:round;stroke-miterlimit:53.8;stroke-dasharray:none;stroke-opacity:1;paint-order:normal"
         d="m 237.06667,38.100002 -33.86669,25.399992 h 16.93334 z"
         id="path195-9-0" /><path
         style="display:inline;fill:#dfaf20;fill-opacity:1;stroke:none;stroke-width:0.264583;stroke-linecap:butt;stroke-linejoin:round;stroke-miterlimit:53.8;stroke-dasharray:none;stroke-opacity:1;paint-order:normal;filter:url(#filter3-3)"
         d="m 217.60147,101.59999 h -28.80294 l 14.40146,-9.525002 z"
         id="path181-5-5-3" /><path
         style="display:inline;fill:#dfaf20;fill-opacity:1;stroke:none;stroke-width:0.264583;stroke-linecap:butt;stroke-linejoin:round;stroke-miterlimit:53.8;stroke-dasharray:none;stroke-opacity:1;paint-order:normal;filter:url(#filter2-0)"
         d="m 228.59999,50.799997 10.58334,10.583333 -19.05002,2.116664 z"
         id="path196-9-3-6" /><path
         style="display:inline;fill:#dfaf20;fill-opacity:1;stroke:none;stroke-width:0.264583;stroke-linecap:butt;stroke-linejoin:round;stroke-miterlimit:53.8;stroke-dasharray:none;stroke-opacity:1;paint-order:normal;filter:url(#filter1-2)"
         d="M 167.21666,61.383335 177.8,50.799997 l 8.46666,12.700005 z"
         id="path197-2-5-1" /></g><g
       id="g184-4-7-60"
       style="display:inline"><path
         style="display:inline;fill:url(#linearGradient5-7);stroke:none;stroke-width:0.264583;stroke-linecap:butt;stroke-linejoin:round;stroke-miterlimit:53.8;stroke-dasharray:none;stroke-opacity:1;paint-order:normal"
         d="m 67.733317,118.53332 29.633343,1e-5 L 127.00001,101.6 135.46666,84.666663 127,76.199999 118.53333,42.333331 135.46667,0 101.60001,12.700002 33.866653,12.700004 4.8046875e-6,0 16.933329,42.333334 8.4666701,76.199997 -4.3906937e-7,84.666668 8.4666653,101.60001 38.099988,118.53333 Z"
         id="path163-3-9-6" /><path
         style="display:inline;fill:#0d0d0d;fill-opacity:1;stroke:none;stroke-width:0.264583;stroke-linecap:butt;stroke-linejoin:round;stroke-miterlimit:53.8;stroke-dasharray:none;stroke-opacity:1;paint-order:normal"
         d="M 12.7,59.266666 33.86667,38.099994 50.799986,63.500002 Z"
         id="path168-0-2-2" /><path
         style="display:inline;fill:#0d0d0d;fill-opacity:1;stroke:none;stroke-width:0.264583;stroke-linecap:butt;stroke-linejoin:round;stroke-miterlimit:53.8;stroke-dasharray:none;stroke-opacity:1;paint-order:normal"
         d="M 122.76667,59.266666 101.59999,38.099997 84.666647,63.499994 Z"
         id="path169-3-0-6" /><path
         style="display:inline;fill:#1b2a31;fill-opacity:1;stroke:none;stroke-width:0.264583;stroke-linecap:butt;stroke-linejoin:round;stroke-miterlimit:53.8;stroke-dasharray:none;stroke-opacity:1;paint-order:normal"
         d="M 50.799986,63.500002 42.33333,82.549988 h 16.933317 l 8.466667,-19.049997 z"
         id="path170-0-2-1" /><path
         style="display:inline;fill:#1b2a31;fill-opacity:1;stroke:none;stroke-width:0.264583;stroke-linecap:butt;stroke-linejoin:round;stroke-miterlimit:53.8;stroke-dasharray:none;stroke-opacity:1;paint-order:normal"
         d="M 93.133327,82.549991 H 76.199981 l -8.466667,-19.05 16.933333,3e-6 z"
         id="path171-9-3-8" /><path
         style="display:inline;fill:#1b2a31;fill-opacity:1;stroke:none;stroke-width:0.264583;stroke-linecap:butt;stroke-linejoin:round;stroke-miterlimit:53.8;stroke-dasharray:none;stroke-opacity:1;paint-order:normal"
         d="M 33.866672,38.099994 101.6,38.100002 67.733314,63.499994 Z"
         id="path177-2-7-7" /><path
         style="display:inline;fill:#0d0d0d;fill-opacity:1;stroke:none;stroke-width:0.264583;stroke-linecap:butt;stroke-linejoin:round;stroke-miterlimit:53.8;stroke-dasharray:none;stroke-opacity:1;paint-order:normal"
         d="m 67.733317,92.074988 8.466664,-9.524997 -16.933334,-3e-6 z"
         id="path178-5-5-9" /><path
         style="display:inline;fill:#1a1a1a;fill-opacity:1;stroke:none;stroke-width:0.264583;stroke-linecap:butt;stroke-linejoin:round;stroke-miterlimit:53.8;stroke-dasharray:none;stroke-opacity:1;paint-order:normal"
         d="m 42.33333,82.549988 10.998528,19.050002 14.401459,-9.525002 -8.46667,-9.525 z"
         id="path179-4-9-2" /><path
         style="display:inline;fill:#1a1a1a;fill-opacity:1;stroke:none;stroke-width:0.264583;stroke-linecap:butt;stroke-linejoin:round;stroke-miterlimit:53.8;stroke-dasharray:none;stroke-opacity:1;paint-order:normal"
         d="M 93.133327,82.549991 82.134804,101.59999 67.733317,92.074988 76.199981,82.549991 Z"
         id="path180-0-2-0" /><path
         style="display:inline;fill:#e55e1a;fill-opacity:1;stroke:none;stroke-width:0.264583;stroke-linecap:butt;stroke-linejoin:round;stroke-miterlimit:53.8;stroke-dasharray:none;stroke-opacity:1;paint-order:normal"
         d="M 82.134804,101.59999 H 53.331858 l 14.401459,-9.525002 z"
         id="path181-5-2-2" /><path
         style="display:inline;fill:url(#linearGradient7-5);stroke:none;stroke-width:0.264583;stroke-linecap:butt;stroke-linejoin:round;stroke-miterlimit:53.8;stroke-dasharray:none;stroke-opacity:1;paint-order:normal"
         d="m 67.733314,63.499994 8.466667,19.049997 -16.933334,-3e-6 z"
         id="path182-9-8-3" /><path
         style="display:inline;fill:#1a1a1a;fill-opacity:1;stroke:none;stroke-width:0.264583;stroke-linecap:butt;stroke-linejoin:round;stroke-miterlimit:53.8;stroke-dasharray:none;stroke-opacity:1;paint-order:normal"
         d="m 0,84.666668 26.077321,19.557992 41.655996,14.30866 -29.633329,1e-5 -29.6333228,-16.93332 z"
         id="path183-4-9-7" /><path
         style="display:inline;fill:#1a1a1a;fill-opacity:1;stroke:none;stroke-width:0.264583;stroke-linecap:butt;stroke-linejoin:round;stroke-miterlimit:53.8;stroke-dasharray:none;stroke-opacity:1;paint-order:normal"
         d="m 135.46666,84.666663 -26.07734,19.557997 -41.656003,14.30866 29.633343,1e-5 L 127.00001,101.6 Z"
         id="path184-6-7-5" /><path
         style="fill:#e55e1a;fill-opacity:1;stroke:none;stroke-width:0.264583;stroke-linecap:butt;stroke-linejoin:round;stroke-miterlimit:53.8;stroke-dasharray:none;stroke-opacity:1;paint-order:normal"
         d="M 93.133324,50.799997 103.71666,61.38333 84.666647,63.499994 Z"
         id="path196-9-36-9" /><path
         style="display:inline;fill:#e55e1a;fill-opacity:1;stroke:none;stroke-width:0.264583;stroke-linecap:butt;stroke-linejoin:round;stroke-miterlimit:53.8;stroke-dasharray:none;stroke-opacity:1;paint-order:normal"
         d="M 31.749994,61.383335 42.333328,50.799997 50.799986,63.500002 Z"
         id="path197-2-1-2" /><path
         style="fill:#1b2a31;fill-opacity:1;stroke:none;stroke-width:0.264583;stroke-linecap:butt;stroke-linejoin:round;stroke-miterlimit:53.8;stroke-dasharray:none;stroke-opacity:1;paint-order:normal"
         d="M 8.46667,76.199996 26.077321,104.22466 0,84.666668 Z"
         id="path198-2-2-2" /><path
         style="fill:#1b2a31;fill-opacity:1;stroke:none;stroke-width:0.264583;stroke-linecap:butt;stroke-linejoin:round;stroke-miterlimit:53.8;stroke-dasharray:none;stroke-opacity:1;paint-order:normal"
         d="M 135.46666,84.666663 109.38932,104.22466 127,76.199999 Z"
         id="path199-4-9-8" /><path
         style="fill:#1a1a1a;fill-opacity:1;stroke:none;stroke-width:0.264583;stroke-linecap:butt;stroke-linejoin:round;stroke-miterlimit:53.8;stroke-dasharray:none;stroke-opacity:1;paint-order:normal"
         d="M 82.134804,101.59999 67.733317,118.53332 53.331858,101.59999 Z"
         id="path185-7-3-9" /><path
         style="fill:#1b2a31;fill-opacity:1;stroke:none;stroke-width:0.264583;stroke-linecap:butt;stroke-linejoin:round;stroke-miterlimit:53.8;stroke-dasharray:none;stroke-opacity:1;paint-order:normal"
         d="M 93.133327,82.549991 109.38932,104.22466 67.733317,118.53332 82.134804,101.59999 Z"
         id="path186-7-1-7" /><path
         style="fill:#1b2a31;fill-opacity:1;stroke:none;stroke-width:0.264583;stroke-linecap:butt;stroke-linejoin:round;stroke-miterlimit:53.8;stroke-dasharray:none;stroke-opacity:1;paint-order:normal"
         d="M 53.331858,101.59999 42.33333,82.549988 26.077321,104.22466 67.733317,118.53332 Z"
         id="path187-5-9-3" /><path
         style="fill:#1a1a1a;fill-opacity:1;stroke:none;stroke-width:0.264583;stroke-linecap:butt;stroke-linejoin:round;stroke-miterlimit:53.8;stroke-dasharray:none;stroke-opacity:1;paint-order:normal"
         d="M 12.7,59.266666 42.33333,82.549988 50.799986,63.500002 Z"
         id="path188-4-4-6" /><path
         style="fill:#1a1a1a;fill-opacity:1;stroke:none;stroke-width:0.264583;stroke-linecap:butt;stroke-linejoin:round;stroke-miterlimit:53.8;stroke-dasharray:none;stroke-opacity:1;paint-order:normal"
         d="m 84.666647,63.499994 8.46668,19.049997 29.633343,-23.283325 z"
         id="path189-8-7-1" /><path
         style="fill:#1a1a1a;fill-opacity:1;stroke:none;stroke-width:0.264583;stroke-linecap:butt;stroke-linejoin:round;stroke-miterlimit:53.8;stroke-dasharray:none;stroke-opacity:1;paint-order:normal"
         d="M 25.399991,27.516669 4.8046875e-6,0 16.933329,42.333333 Z"
         id="path191-1-8-2" /><path
         style="fill:#1a1a1a;fill-opacity:1;stroke:none;stroke-width:0.264583;stroke-linecap:butt;stroke-linejoin:round;stroke-miterlimit:53.8;stroke-dasharray:none;stroke-opacity:1;paint-order:normal"
         d="m 135.46667,0 -25.4,27.516666 8.46666,14.816664 z"
         id="path193-2-4-9" /><path
         style="fill:#1a1a1a;fill-opacity:1;stroke:none;stroke-width:0.264583;stroke-linecap:butt;stroke-linejoin:round;stroke-miterlimit:53.8;stroke-dasharray:none;stroke-opacity:1;paint-order:normal"
         d="m 33.866669,38.099994 33.866645,25.399997 -16.933328,1.1e-5 z"
         id="path194-8-5-3" /><path
         style="fill:#1a1a1a;fill-opacity:1;stroke:none;stroke-width:0.264583;stroke-linecap:butt;stroke-linejoin:round;stroke-miterlimit:53.8;stroke-dasharray:none;stroke-opacity:1;paint-order:normal"
         d="M 101.6,38.100002 67.733314,63.499994 h 16.933333 z"
         id="path195-9-0-1" /><path
         style="display:inline;fill:#dfaf20;fill-opacity:1;stroke:none;stroke-width:0.264583;stroke-linecap:butt;stroke-linejoin:round;stroke-miterlimit:53.8;stroke-dasharray:none;stroke-opacity:1;paint-order:normal;filter:url(#filter3-3-9)"
         d="M 82.134805,101.59999 H 53.331858 l 14.401459,-9.525002 z"
         id="path181-5-5-3-9" /><path
         style="display:inline;fill:#dfaf20;fill-opacity:1;stroke:none;stroke-width:0.264583;stroke-linecap:butt;stroke-linejoin:round;stroke-miterlimit:53.8;stroke-dasharray:none;stroke-opacity:1;paint-order:normal;filter:url(#filter2-0-2)"
         d="M 93.133325,50.799997 103.71666,61.38333 84.666645,63.499994 Z"
         id="path196-9-3-6-4" /><path
         style="display:inline;fill:#dfaf20;fill-opacity:1;stroke:none;stroke-width:0.264583;stroke-linecap:butt;stroke-linejoin:round;stroke-miterlimit:53.8;stroke-dasharray:none;stroke-opacity:1;paint-order:normal;filter:url(#filter1-2-0)"
         d="M 31.749994,61.383335 42.333328,50.799997 50.799986,63.500002 Z"
         id="path197-2-5-1-7" /></g><path
       d="m 1253.4024,525.00676 h -10.5729 v 5.28646 h 7.9297 v 5.28645 h -7.9297 v 10.59114 h -5.2865 v -26.4505 h 15.8594 z m 15.8593,15.87759 v -15.87759 h -5.2864 v 15.87759 z m 5.2865,0 q -0.055,2.24219 -1.5859,3.77344 -1.5131,1.51302 -3.7006,1.51302 h -5.2864 q -2.1875,0 -3.7188,-1.51302 -1.513,-1.53125 -1.5677,-3.77344 v -15.87759 q 0.055,-2.26041 1.5677,-3.77343 1.5313,-1.51302 3.7188,-1.51302 h 5.2864 q 2.1875,0 3.7006,1.51302 1.5312,1.51302 1.5859,3.77343 z m 17.8463,-7.94791 3.2995,13.23437 h -5.2864 l -2.6433,-10.57291 -2.6432,10.57291 h -5.2865 l 3.2995,-13.23437 -3.2995,-13.21613 h 5.2865 l 2.6432,10.57291 2.6433,-10.57291 h 5.2864 z m 8.586,-13.21613 h 5.2864 v 26.4505 h -5.2864 z m 10.5729,0 h 15.8593 v 5.28645 h -5.2864 v 21.16405 h -5.2865 v -21.16405 h -5.2864 z m 37.0051,10.57291 q -0.055,2.26041 -1.5859,3.77343 -1.513,1.51302 -3.7005,1.51302 v 10.59114 h -5.2865 v -10.59114 q -2.1875,0 -3.7187,-1.51302 -1.513,-1.51302 -1.5677,-3.77343 v -10.57291 h 5.2864 v 10.57291 h 5.2865 v -10.57291 h 5.2864 z"
       id="text7-1-1"
       style="font-size:37.3333px;font-family:Blazma;-inkscape-font-specification:Blazma;text-align:center;letter-spacing:0px;white-space:pre;fill:#df6020;filter:url(#filter8)"
       transform="matrix(3.0506243,0,0,3.0506243,-3470.2142,-1558.0833)"
       aria-label="FOXITY" /><g
       id="g3"><path
         d="m 1253.4024,525.00676 h -10.5729 v 5.28646 h 7.9297 v 5.28645 h -7.9297 v 10.59114 h -5.2865 v -26.4505 h 15.8594 z m 15.8593,15.87759 v -15.87759 h -5.2864 v 15.87759 z m 5.2865,0 q -0.055,2.24219 -1.5859,3.77344 -1.5131,1.51302 -3.7006,1.51302 h -5.2864 q -2.1875,0 -3.7188,-1.51302 -1.513,-1.53125 -1.5677,-3.77344 v -15.87759 q 0.055,-2.26041 1.5677,-3.77343 1.5313,-1.51302 3.7188,-1.51302 h 5.2864 q 2.1875,0 3.7006,1.51302 1.5312,1.51302 1.5859,3.77343 z m 17.8463,-7.94791 3.2995,13.23437 h -5.2864 l -2.6433,-10.57291 -2.6432,10.57291 h -5.2865 l 3.2995,-13.23437 -3.2995,-13.21613 h 5.2865 l 2.6432,10.57291 2.6433,-10.57291 h 5.2864 z m 8.586,-13.21613 h 5.2864 v 26.4505 h -5.2864 z m 10.5729,0 h 15.8593 v 5.28645 h -5.2864 v 21.16405 h -5.2865 v -21.16405 h -5.2864 z m 37.0051,10.57291 q -0.055,2.26041 -1.5859,3.77343 -1.513,1.51302 -3.7005,1.51302 v 10.59114 h -5.2865 v -10.59114 q -2.1875,0 -3.7187,-1.51302 -1.513,-1.51302 -1.5677,-3.77343 v -10.57291 h 5.2864 v 10.57291 h 5.2865 v -10.57291 h 5.2864 z"
         id="text7-1"
         style="font-size:37.3333px;font-family:Blazma;-inkscape-font-specification:Blazma;text-align:center;letter-spacing:0px;white-space:pre;fill:#e0c852"
         transform="matrix(3.0506243,0,0,3.0506243,-3470.2142,-1558.0833)"
         aria-label="FOXITY" /></g><rect
       style="fill:#0d0d0d;fill-opacity:0;stroke-width:3.01101;stroke-linecap:square;stroke-dashoffset:3.27118"
       id="rect3"
       width="541.86658"
       height="135.46666"
       x="135.46666"
       y="0" /></g></svg>
